<svg xmlns="http://www.w3.org/2000/svg" style="display:none">
  <symbol id="icon-artec" viewBox="0 0 24 24">
  <rect width="24" height="24" fill="#e60023"/>
  <text x="12" y="16" font-size="10" text-anchor="middle" fill="#fff" font-family="Arial">A</text></symbol>
  <symbol id="icon-autodesk" viewBox="0 0 24 24"><title>Autodesk</title><path d="m.129 20.202 14.7-9.136h7.625c.235 0 .445.188.445.445 0 .21-.092.305-.21.375l-7.222 4.323c-.47.283-.633.845-.633 1.265l-.008 2.725H24V4.362a.561.561 0 0 0-.585-.562h-8.752L0 12.893V20.2h.129z"/></symbol>
  <symbol id="icon-chitubox" viewBox="0 0 24 24">
  <rect width="24" height="24" fill="#ff6f61"/>
  <text x="12" y="16" font-size="10" text-anchor="middle" fill="#fff" font-family="Arial">CB</text></symbol>
  <symbol id="icon-cplusplus" viewBox="0 0 24 24"><title>C++</title><path d="M22.394 6c-.167-.29-.398-.543-.652-.69L12.926.22c-.509-.294-1.34-.294-1.848 0L2.26 5.31c-.508.293-.923 1.013-.923 1.6v10.18c0 .294.104.62.271.91.167.29.398.543.652.69l8.816 5.09c.508.293 1.34.293 1.848 0l8.816-5.09c.254-.147.485-.4.652-.69.167-.29.27-.616.27-.91V6.91c.003-.294-.1-.62-.268-.91zM12 19.11c-3.92 0-7.109-3.19-7.109-7.11 0-3.92 3.19-7.11 7.11-7.11a7.133 7.133 0 016.156 3.553l-3.076 1.78a3.567 3.567 0 00-3.08-1.78A3.56 3.56 0 008.444 12 3.56 3.56 0 0012 15.555a3.57 3.57 0 003.08-1.778l3.078 1.78A7.135 7.135 0 0112 19.11zm7.11-6.715h-.79v.79h-.79v-.79h-.79v-.79h.79v-.79h.79v.79h.79zm2.962 0h-.79v.79h-.79v-.79h-.79v-.79h.79v-.79h.79v.79h.79z"/></symbol>
  <symbol id="icon-creality" viewBox="0 0 24 24"><title>Creality</title><path d="m3.215 10.33-1.772.01c-.785.029-1.42.737-1.443 1.613v.088c.018.903.69 1.629 1.51 1.629h1.705c.01 0 .02-.011.02-.024v-.603a.022.022 0 0 0-.02-.022H1.508c-.501 0-.92-.443-.928-1.001-.007-.569.405-1.034.912-1.034l1.723-.007c.01 0 .02-.01.02-.022v-.603c0-.013-.01-.024-.02-.024zm.412 0c-.011 0-.02.011-.02.024v3.292c0 .013.009.024.02.024h.54c.012 0 .02-.011.02-.024V11c0-.012.009-.021.02-.021h1.606c.168 0 .314.145.32.333.006.198-.137.36-.313.36l-1.533.002c-.018 0-.028.023-.016.037l1.75 1.95c.004.005.009.009.014.009H6.8c.017 0 .026-.025.014-.04L5.64 12.32h.183c.496 0 .898-.454.89-1.01-.006-.546-.416-.98-.905-.98h-2.18Zm4.873 0c-.827 0-1.5.75-1.5 1.67 0 .92.673 1.67 1.5 1.67h1.68c.01 0 .02-.011.02-.024v-.603c0-.012-.01-.022-.02-.022H8.5c-.404 0-.75-.292-.871-.697h2.55c.012 0 .02-.01.02-.023v-.604c0-.012-.008-.021-.02-.021h-2.55c.123-.405.468-.697.872-.697h1.68c.01 0 .02-.012.02-.024v-.601c0-.013-.01-.024-.02-.024zm3.709 0c-.013 0-.026.009-.033.024l-1.7 3.28c-.007.016 0 .036.016.036h.625a.02.02 0 0 0 .018-.012l1.056-2.045a.02.02 0 0 1 .036 0l.71 1.375c.008.015-.002.033-.017.033h-.928c-.007 0-.012.005-.015.012l-.313.602c-.008.015.002.033.018.033h2.242c.015 0 .025-.018.017-.033l-1.697-3.281a.041.041 0 0 0-.035-.024zm2.03.002c-.01 0-.02.01-.02.022v2.94c0 .207.15.376.336.376h2.148c.01 0 .022-.011.022-.024v-.603a.022.022 0 0 0-.022-.022H14.82A.022.022 0 0 1 14.8 13v-2.646c0-.013-.01-.022-.02-.022h-.54zm2.84 0c-.01 0-.02.01-.02.022v3.292c0 .013.01.024.02.024h.542c.01 0 .02-.011.02-.024v-3.292c0-.013-.01-.022-.02-.022h-.54zm.85 0c-.01 0-.02.01-.02.022v.601c0 .012.01.024.02.024h1.169c.01 0 .02.009.02.021v2.646c0 .013.01.022.02.022h.54c.01 0 .02-.01.02-.022V11a.02.02 0 0 1 .02-.021h1.172a.02.02 0 0 1 .015.007l1.018 1.354a.02.02 0 0 1 .004.014v1.292c0 .013.008.024.02.024h.54c.011 0 .02-.011.02-.024v-1.292c0-.006.003-.01.006-.014l1.482-1.97c.011-.016.001-.038-.016-.038h-.705a.02.02 0 0 0-.015.008l-1.026 1.363a.02.02 0 0 1-.03 0l-1.026-1.363a.02.02 0 0 0-.016-.008z"/></symbol>
  <symbol id="icon-geomagic" viewBox="0 0 24 24">
  <rect width="24" height="24" fill="#0f9d58"/>
  <text x="12" y="16" font-size="12" text-anchor="middle" fill="#fff" font-family="Arial">GDX</text></symbol>
  <symbol id="icon-gominspect" viewBox="0 0 24 24">
  <rect width="24" height="24" fill="#005aad"/>
  <text x="12" y="16" font-size="10" text-anchor="middle" fill="#fff" font-family="Arial">GOM</text></symbol>
  <symbol id="icon-icons" viewBox="0 0 24 24"
viewBox="0 0 24 24"
viewBox="0 0 24 24"
viewBox="0 0 24 24"
viewBox="0 0 24 24"
viewBox="0 0 24 24"
viewBox="0 0 24 24">
  <symbol id="icon-artec" viewBox="0 0 24 24">
  <rect width="24" height="24" fill="#e60023"/>
  <text x="12" y="16" font-size="10" text-anchor="middle" fill="#fff" font-family="Arial">A</text></symbol>
  <symbol id="icon-autodesk" viewBox="0 0 24 24"><title>Autodesk</title><path d="m.129 20.202 14.7-9.136h7.625c.235 0 .445.188.445.445 0 .21-.092.305-.21.375l-7.222 4.323c-.47.283-.633.845-.633 1.265l-.008 2.725H24V4.362a.561.561 0 0 0-.585-.562h-8.752L0 12.893V20.2h.129z"/></symbol>
  <symbol id="icon-chitubox" viewBox="0 0 24 24">
  <rect width="24" height="24" fill="#ff6f61"/>
  <text x="12" y="16" font-size="10" text-anchor="middle" fill="#fff" font-family="Arial">CB</text></symbol>
  <symbol id="icon-cplusplus" viewBox="0 0 24 24"><title>C++</title><path d="M22.394 6c-.167-.29-.398-.543-.652-.69L12.926.22c-.509-.294-1.34-.294-1.848 0L2.26 5.31c-.508.293-.923 1.013-.923 1.6v10.18c0 .294.104.62.271.91.167.29.398.543.652.69l8.816 5.09c.508.293 1.34.293 1.848 0l8.816-5.09c.254-.147.485-.4.652-.69.167-.29.27-.616.27-.91V6.91c.003-.294-.1-.62-.268-.91zM12 19.11c-3.92 0-7.109-3.19-7.109-7.11 0-3.92 3.19-7.11 7.11-7.11a7.133 7.133 0 016.156 3.553l-3.076 1.78a3.567 3.567 0 00-3.08-1.78A3.56 3.56 0 008.444 12 3.56 3.56 0 0012 15.555a3.57 3.57 0 003.08-1.778l3.078 1.78A7.135 7.135 0 0112 19.11zm7.11-6.715h-.79v.79h-.79v-.79h-.79v-.79h.79v-.79h.79v.79h.79zm2.962 0h-.79v.79h-.79v-.79h-.79v-.79h.79v-.79h.79v.79h.79z"/></symbol>
  <symbol id="icon-creality" viewBox="0 0 24 24"><title>Creality</title><path d="m3.215 10.33-1.772.01c-.785.029-1.42.737-1.443 1.613v.088c.018.903.69 1.629 1.51 1.629h1.705c.01 0 .02-.011.02-.024v-.603a.022.022 0 0 0-.02-.022H1.508c-.501 0-.92-.443-.928-1.001-.007-.569.405-1.034.912-1.034l1.723-.007c.01 0 .02-.01.02-.022v-.603c0-.013-.01-.024-.02-.024zm.412 0c-.011 0-.02.011-.02.024v3.292c0 .013.009.024.02.024h.54c.012 0 .02-.011.02-.024V11c0-.012.009-.021.02-.021h1.606c.168 0 .314.145.32.333.006.198-.137.36-.313.36l-1.533.002c-.018 0-.028.023-.016.037l1.75 1.95c.004.005.009.009.014.009H6.8c.017 0 .026-.025.014-.04L5.64 12.32h.183c.496 0 .898-.454.89-1.01-.006-.546-.416-.98-.905-.98h-2.18Zm4.873 0c-.827 0-1.5.75-1.5 1.67 0 .92.673 1.67 1.5 1.67h1.68c.01 0 .02-.011.02-.024v-.603c0-.012-.01-.022-.02-.022H8.5c-.404 0-.75-.292-.871-.697h2.55c.012 0 .02-.01.02-.023v-.604c0-.012-.008-.021-.02-.021h-2.55c.123-.405.468-.697.872-.697h1.68c.01 0 .02-.012.02-.024v-.601c0-.013-.01-.024-.02-.024zm3.709 0c-.013 0-.026.009-.033.024l-1.7 3.28c-.007.016 0 .036.016.036h.625a.02.02 0 0 0 .018-.012l1.056-2.045a.02.02 0 0 1 .036 0l.71 1.375c.008.015-.002.033-.017.033h-.928c-.007 0-.012.005-.015.012l-.313.602c-.008.015.002.033.018.033h2.242c.015 0 .025-.018.017-.033l-1.697-3.281a.041.041 0 0 0-.035-.024zm2.03.002c-.01 0-.02.01-.02.022v2.94c0 .207.15.376.336.376h2.148c.01 0 .022-.011.022-.024v-.603a.022.022 0 0 0-.022-.022H14.82A.022.022 0 0 1 14.8 13v-2.646c0-.013-.01-.022-.02-.022h-.54zm2.84 0c-.01 0-.02.01-.02.022v3.292c0 .013.01.024.02.024h.542c.01 0 .02-.011.02-.024v-3.292c0-.013-.01-.022-.02-.022h-.54zm.85 0c-.01 0-.02.01-.02.022v.601c0 .012.01.024.02.024h1.169c.01 0 .02.009.02.021v2.646c0 .013.01.022.02.022h.54c.01 0 .02-.01.02-.022V11a.02.02 0 0 1 .02-.021h1.172a.02.02 0 0 1 .015.007l1.018 1.354a.02.02 0 0 1 .004.014v1.292c0 .013.008.024.02.024h.54c.011 0 .02-.011.02-.024v-1.292c0-.006.003-.01.006-.014l1.482-1.97c.011-.016.001-.038-.016-.038h-.705a.02.02 0 0 0-.015.008l-1.026 1.363a.02.02 0 0 1-.03 0l-1.026-1.363a.02.02 0 0 0-.016-.008z"/></symbol>
  <symbol id="icon-geomagic" viewBox="0 0 24 24">
  <rect width="24" height="24" fill="#0f9d58"/>
  <text x="12" y="16" font-size="12" text-anchor="middle" fill="#fff" font-family="Arial">GDX</text></symbol>
  <symbol id="icon-gominspect" viewBox="0 0 24 24">
  <rect width="24" height="24" fill="#005aad"/>
  <text x="12" y="16" font-size="10" text-anchor="middle" fill="#fff" font-family="Arial">GOM</text></symbol></symbol>
  <symbol id="icon-polygonx" viewBox="0 0 24 24">
  <rect width="24" height="24" fill="#663399"/>
  <text x="12" y="16" font-size="10" text-anchor="middle" fill="#fff" font-family="Arial">PX</text></symbol>
  <symbol id="icon-python" viewBox="0 0 24 24"><title>Python</title><path d="M14.25.18l.9.2.73.26.59.3.45.32.34.34.25.34.16.33.1.3.04.26.02.2-.01.13V8.5l-.05.63-.13.55-.21.46-.26.38-.3.31-.33.25-.35.19-.35.14-.33.1-.3.07-.26.04-.21.02H8.77l-.69.05-.59.14-.5.22-.41.27-.33.32-.27.35-.2.36-.15.37-.1.35-.07.32-.04.27-.02.21v3.06H3.17l-.21-.03-.28-.07-.32-.12-.35-.18-.36-.26-.36-.36-.35-.46-.32-.59-.28-.73-.21-.88-.14-1.05-.05-1.23.06-1.22.16-1.04.24-.87.32-.71.36-.57.4-.44.42-.33.42-.24.4-.16.36-.1.32-.05.24-.01h.16l.06.01h8.16v-.83H6.18l-.01-2.75-.02-.37.05-.34.11-.31.17-.28.25-.26.31-.23.38-.2.44-.18.51-.15.58-.12.64-.1.71-.06.77-.04.84-.02 1.27.05zm-6.3 1.98l-.23.33-.08.41.08.41.23.34.33.22.41.09.41-.09.33-.22.23-.34.08-.41-.08-.41-.23-.33-.33-.22-.41-.09-.41.09zm13.09 3.95l.28.06.32.12.35.18.36.27.36.35.35.47.32.59.28.73.21.88.14 1.04.05 1.23-.06 1.23-.16 1.04-.24.86-.32.71-.36.57-.4.45-.42.33-.42.24-.4.16-.36.09-.32.05-.24.02-.16-.01h-8.22v.82h5.84l.01 2.76.02.36-.05.34-.11.31-.17.29-.25.25-.31.24-.38.2-.44.17-.51.15-.58.13-.64.09-.71.07-.77.04-.84.01-1.27-.04-1.07-.14-.9-.2-.73-.25-.59-.3-.45-.33-.34-.34-.25-.34-.16-.33-.1-.3-.04-.25-.02-.2.01-.13v-5.34l.05-.64.13-.54.21-.46.26-.38.3-.32.33-.24.35-.2.35-.14.33-.1.3-.06.26-.04.21-.02.13-.01h5.84l.69-.05.59-.14.5-.21.41-.28.33-.32.27-.35.2-.36.15-.36.1-.35.07-.32.04-.28.02-.21V6.07h2.09l.14.01zm-6.47 14.25l-.23.33-.08.41.08.41.23.33.33.23.41.08.41-.08.33-.23.23-.33.08-.41-.08-.41-.23-.33-.33-.23-.41-.08-.41.08z"/></symbol>
  <symbol id="icon-rangevision" viewBox="0 0 24 24">
  <rect width="24" height="24" fill="#2a9d8f"/>
  <text x="12" y="16" font-size="9" text-anchor="middle" fill="#fff" font-family="Arial">RV</text></symbol>
  <symbol id="icon-tflex" viewBox="0 0 24 24">
  <rect width="24" height="24" fill="#ffb000"/>
  <text x="12" y="16" font-size="12" text-anchor="middle" fill="#fff" font-family="Arial">TF</text></symbol>
  <symbol id="icon-ultimaker" viewBox="0 0 24 24">
  <rect width="24" height="24" fill="#1789fc"/>
  <text x="12" y="16" font-size="10" text-anchor="middle" fill="#fff" font-family="Arial">UM</text></symbol>
</svg>
